<svg width="961" height="505" viewBox="0 0 961 505" fill="none" xmlns="http://www.w3.org/2000/svg">
<path d="M15.3569 481.027H2.27876L26.0902 413.39H41.2159L65.0604 481.027H51.9822L33.9173 427.261H33.3889L15.3569 481.027ZM15.7862 454.507H51.4538V464.349H15.7862V454.507ZM131.411 413.39V481.027H120.513L88.6429 434.956H88.0815V481.027H75.829V413.39H86.7935L118.63 459.494H119.225V413.39H131.411ZM202.204 413.39V481.027H191.305L159.436 434.956H158.874V481.027H146.622V413.39H157.586L189.423 459.494H190.017V413.39H202.204ZM226.1 481.027H213.022L236.833 413.39H251.959L275.803 481.027H262.725L244.66 427.261H244.132L226.1 481.027ZM226.529 454.507H262.197V464.349H226.529V454.507ZM275.426 423.661V413.39H329.39V423.661H308.485V481.027H296.331V423.661H275.426ZM342.165 481.027H329.087L352.898 413.39H368.024L391.868 481.027H378.79L360.725 427.261H360.197L342.165 481.027ZM342.594 454.507H378.262V464.349H342.594V454.507ZM402.637 481.027V413.39H414.889V470.756H444.678V481.027H402.637ZM507.299 458.305H518.396L524.968 466.826L529.658 472.374L540.92 486.839H529.03L521.368 477.13L518.099 472.506L507.299 458.305ZM542.538 447.209C542.538 454.496 541.173 460.738 538.443 465.934C535.734 471.108 532.036 475.071 527.346 477.823C522.678 480.576 517.383 481.952 511.461 481.952C505.538 481.952 500.232 480.576 495.542 477.823C490.875 475.049 487.176 471.075 484.446 465.901C481.738 460.705 480.384 454.474 480.384 447.209C480.384 439.921 481.738 433.69 484.446 428.516C487.176 423.32 490.875 419.346 495.542 416.594C500.232 413.842 505.538 412.466 511.461 412.466C517.383 412.466 522.678 413.842 527.346 416.594C532.036 419.346 535.734 423.32 538.443 428.516C541.173 433.69 542.538 439.921 542.538 447.209ZM530.219 447.209C530.219 442.079 529.416 437.752 527.808 434.23C526.223 430.685 524.021 428.01 521.203 426.204C518.385 424.377 515.138 423.463 511.461 423.463C507.784 423.463 504.536 424.377 501.718 426.204C498.9 428.01 496.687 430.685 495.08 434.23C493.495 437.752 492.702 442.079 492.702 447.209C492.702 452.339 493.495 456.676 495.08 460.221C496.687 463.743 498.9 466.419 501.718 468.246C504.536 470.051 507.784 470.954 511.461 470.954C515.138 470.954 518.385 470.051 521.203 468.246C524.021 466.419 526.223 463.743 527.808 460.221C529.416 456.676 530.219 452.339 530.219 447.209ZM598.708 413.39H610.961V457.579C610.961 462.422 609.816 466.683 607.526 470.36C605.258 474.036 602.066 476.91 597.949 478.979C593.832 481.027 589.021 482.051 583.517 482.051C577.99 482.051 573.169 481.027 569.051 478.979C564.934 476.91 561.742 474.036 559.474 470.36C557.206 466.683 556.072 462.422 556.072 457.579V413.39H568.325V456.555C568.325 459.373 568.941 461.883 570.174 464.085C571.429 466.286 573.191 468.015 575.458 469.27C577.726 470.503 580.412 471.119 583.517 471.119C586.621 471.119 589.307 470.503 591.575 469.27C593.865 468.015 595.626 466.286 596.859 464.085C598.092 461.883 598.708 459.373 598.708 456.555V413.39ZM634.824 481.027H621.746L645.557 413.39H660.683L684.528 481.027H671.449L653.384 427.261H652.856L634.824 481.027ZM635.253 454.507H670.921V464.349H635.253V454.507ZM695.296 481.027V413.39H720.66C725.856 413.39 730.215 414.293 733.738 416.099C737.283 417.904 739.958 420.436 741.763 423.694C743.591 426.931 744.504 430.707 744.504 435.022C744.504 439.36 743.58 443.125 741.73 446.317C739.903 449.487 737.206 451.942 733.639 453.682C730.072 455.399 725.691 456.258 720.495 456.258H702.43V446.086H718.843C721.882 446.086 724.37 445.667 726.307 444.831C728.245 443.972 729.676 442.728 730.601 441.099C731.547 439.448 732.021 437.422 732.021 435.022C732.021 432.622 731.547 430.575 730.601 428.879C729.654 427.162 728.212 425.863 726.274 424.982C724.337 424.08 721.838 423.628 718.777 423.628H707.549V481.027H695.296ZM730.237 450.379L746.981 481.027H733.309L716.862 450.379H730.237ZM754.67 423.661V413.39H808.634V423.661H787.729V481.027H775.575V423.661H754.67ZM833.15 413.39V481.027H820.897V413.39H833.15ZM848.278 481.027V413.39H892.268V423.661H860.53V442.024H889.989V452.295H860.53V470.756H892.532V481.027H848.278ZM906.628 481.027V413.39H931.991C937.187 413.39 941.547 414.293 945.07 416.099C948.614 417.904 951.289 420.436 953.095 423.694C954.922 426.931 955.836 430.707 955.836 435.022C955.836 439.36 954.911 443.125 953.062 446.317C951.234 449.487 948.537 451.942 944.971 453.682C941.404 455.399 937.022 456.258 931.826 456.258H913.761V446.086H930.175C933.213 446.086 935.701 445.667 937.639 444.831C939.576 443.972 941.007 442.728 941.932 441.099C942.879 439.448 943.352 437.422 943.352 435.022C943.352 432.622 942.879 430.575 941.932 428.879C940.985 427.162 939.543 425.863 937.606 424.982C935.668 424.08 933.169 423.628 930.109 423.628H918.88V481.027H906.628ZM941.569 450.379L958.313 481.027H944.64L928.194 450.379H941.569Z" fill="#344146"/>
<path d="M230.141 222.466C192.326 168.666 163.379 149.693 153.633 146.932C203.924 110.286 279.051 113.397 305.919 118.668C356.655 128.621 361.96 137.186 433.352 182.993C453.171 195.71 464.54 210.039 560.054 242.933C336.133 182.993 268.883 207.359 230.141 222.466Z" fill="#53683D"/>
<path d="M604.644 236.598C543.047 234.454 498.246 210.202 483.546 198.344C580.765 170.079 581.009 144.008 677.985 128.901C737.751 119.591 787.306 141.003 807.367 157.166C777.543 158.53 747.427 182.993 730.371 194.689C711.095 207.907 666.24 238.742 604.644 236.598Z" fill="#9CB080"/>
<path d="M395.833 82.8699V142.799L384.052 135.072L383.847 87.3807H365.03L422.124 43.6904L479.218 0L545.205 47.8145V30.158H562.99V64.9556L599.077 91.5049H577.167V146.537L565.826 151.434V142.799V82.8699L479.218 20.8786L395.833 82.8699Z" fill="#53683D"/>
<path d="M458.597 101.3V82.8699H476.77V101.3H458.597Z" fill="#53683D"/>
<path d="M458.597 127.72V109.29H476.254V127.72H458.597Z" fill="#53683D"/>
<path d="M483.546 127.72V109.29H502.546V127.72H483.546Z" fill="#53683D"/>
<path d="M484.502 101.3V82.8699H502.546V101.3H484.502Z" fill="#53683D"/>
<path d="M400.897 223.853C336.311 210.502 266.343 225.243 239.432 234.283C252.115 258.649 304.379 294.781 328.926 309.801C294.38 288.606 267.246 254.936 257.998 240.75C323.293 220.724 378.71 229.964 387.832 231.652C447.144 242.631 518.971 269.747 609.3 266.201C681.563 263.364 759.291 199.376 789.123 167.736C750.449 204.598 663.025 254.954 605.949 256.123C534.603 257.583 481.63 240.542 400.897 223.853Z" fill="#C5AD8D"/>
<path d="M410.284 278.718C425.304 255.019 495.954 259.664 529.402 264.949C476.665 259.442 453.189 272.251 448.043 278.718C442.411 282.89 441.409 294.03 482.464 305.211C545.502 322.38 579.468 359.659 491.643 360.702C421.383 361.536 355.976 327.95 332.055 311.052C332.055 311.052 363.731 329.11 391.264 335.033C444.636 346.514 517.981 349.728 493.312 333.165C467.615 315.913 391.509 308.34 410.284 278.718Z" fill="#53676E"/>
<path d="M476.656 280.169C477.991 273.396 504.577 272.729 517.704 273.242C484.045 277.039 489.833 280.169 498.206 281.452L550.67 287.609C585.798 292.435 617.624 301.348 632.508 315.701C647.392 330.054 628.892 351.384 615.511 360.008C615.037 360.349 614.586 360.632 614.165 360.853C614.605 360.584 615.054 360.302 615.511 360.008C624.133 353.806 637.515 329.245 621.99 318.779C591.964 298.54 474.989 288.635 476.656 280.169Z" fill="#53676E"/>
</svg>
