<svg width="961" height="84" viewBox="0 408 961 84" fill="none" xmlns="http://www.w3.org/2000/svg">
<path d="M15.3569 481.027H2.27876L26.0902 413.39H41.2159L65.0604 481.027H51.9822L33.9173 427.261H33.3889L15.3569 481.027ZM15.7862 454.507H51.4538V464.349H15.7862V454.507ZM131.411 413.39V481.027H120.513L88.6429 434.956H88.0815V481.027H75.829V413.39H86.7935L118.63 459.494H119.225V413.39H131.411ZM202.204 413.39V481.027H191.305L159.436 434.956H158.874V481.027H146.622V413.39H157.586L189.423 459.494H190.017V413.39H202.204ZM226.1 481.027H213.022L236.833 413.39H251.959L275.803 481.027H262.725L244.66 427.261H244.132L226.1 481.027ZM226.529 454.507H262.197V464.349H226.529V454.507ZM275.426 423.661V413.39H329.39V423.661H308.485V481.027H296.331V423.661H275.426ZM342.165 481.027H329.087L352.898 413.39H368.024L391.868 481.027H378.79L360.725 427.261H360.197L342.165 481.027ZM342.594 454.507H378.262V464.349H342.594V454.507ZM402.637 481.027V413.39H414.889V470.756H444.678V481.027H402.637ZM507.299 458.305H518.396L524.968 466.826L529.658 472.374L540.92 486.839H529.03L521.368 477.13L518.099 472.506L507.299 458.305ZM542.538 447.209C542.538 454.496 541.173 460.738 538.443 465.934C535.734 471.108 532.036 475.071 527.346 477.823C522.678 480.576 517.383 481.952 511.461 481.952C505.538 481.952 500.232 480.576 495.542 477.823C490.875 475.049 487.176 471.075 484.446 465.901C481.738 460.705 480.384 454.474 480.384 447.209C480.384 439.921 481.738 433.69 484.446 428.516C487.176 423.32 490.875 419.346 495.542 416.594C500.232 413.842 505.538 412.466 511.461 412.466C517.383 412.466 522.678 413.842 527.346 416.594C532.036 419.346 535.734 423.32 538.443 428.516C541.173 433.69 542.538 439.921 542.538 447.209ZM530.219 447.209C530.219 442.079 529.416 437.752 527.808 434.23C526.223 430.685 524.021 428.01 521.203 426.204C518.385 424.377 515.138 423.463 511.461 423.463C507.784 423.463 504.536 424.377 501.718 426.204C498.9 428.01 496.687 430.685 495.08 434.23C493.495 437.752 492.702 442.079 492.702 447.209C492.702 452.339 493.495 456.676 495.08 460.221C496.687 463.743 498.9 466.419 501.718 468.246C504.536 470.051 507.784 470.954 511.461 470.954C515.138 470.954 518.385 470.051 521.203 468.246C524.021 466.419 526.223 463.743 527.808 460.221C529.416 456.676 530.219 452.339 530.219 447.209ZM598.708 413.39H610.961V457.579C610.961 462.422 609.816 466.683 607.526 470.36C605.258 474.036 602.066 476.91 597.949 478.979C593.832 481.027 589.021 482.051 583.517 482.051C577.99 482.051 573.169 481.027 569.051 478.979C564.934 476.91 561.742 474.036 559.474 470.36C557.206 466.683 556.072 462.422 556.072 457.579V413.39H568.325V456.555C568.325 459.373 568.941 461.883 570.174 464.085C571.429 466.286 573.191 468.015 575.458 469.27C577.726 470.503 580.412 471.119 583.517 471.119C586.621 471.119 589.307 470.503 591.575 469.27C593.865 468.015 595.626 466.286 596.859 464.085C598.092 461.883 598.708 459.373 598.708 456.555V413.39ZM634.824 481.027H621.746L645.557 413.39H660.683L684.528 481.027H671.449L653.384 427.261H652.856L634.824 481.027ZM635.253 454.507H670.921V464.349H635.253V454.507ZM695.296 481.027V413.39H720.66C725.856 413.39 730.215 414.293 733.738 416.099C737.283 417.904 739.958 420.436 741.763 423.694C743.591 426.931 744.504 430.707 744.504 435.022C744.504 439.36 743.58 443.125 741.73 446.317C739.903 449.487 737.206 451.942 733.639 453.682C730.072 455.399 725.691 456.258 720.495 456.258H702.43V446.086H718.843C721.882 446.086 724.37 445.667 726.307 444.831C728.245 443.972 729.676 442.728 730.601 441.099C731.547 439.448 732.021 437.422 732.021 435.022C732.021 432.622 731.547 430.575 730.601 428.879C729.654 427.162 728.212 425.863 726.274 424.982C724.337 424.08 721.838 423.628 718.777 423.628H707.549V481.027H695.296ZM730.237 450.379L746.981 481.027H733.309L716.862 450.379H730.237ZM754.67 423.661V413.39H808.634V423.661H787.729V481.027H775.575V423.661H754.67ZM833.15 413.39V481.027H820.897V413.39H833.15ZM848.278 481.027V413.39H892.268V423.661H860.53V442.024H889.989V452.295H860.53V470.756H892.532V481.027H848.278ZM906.628 481.027V413.39H931.991C937.187 413.39 941.547 414.293 945.07 416.099C948.614 417.904 951.289 420.436 953.095 423.694C954.922 426.931 955.836 430.707 955.836 435.022C955.836 439.36 954.911 443.125 953.062 446.317C951.234 449.487 948.537 451.942 944.971 453.682C941.404 455.399 937.022 456.258 931.826 456.258H913.761V446.086H930.175C933.213 446.086 935.701 445.667 937.639 444.831C939.576 443.972 941.007 442.728 941.932 441.099C942.879 439.448 943.352 437.422 943.352 435.022C943.352 432.622 942.879 430.575 941.932 428.879C940.985 427.162 939.543 425.863 937.606 424.982C935.668 424.08 933.169 423.628 930.109 423.628H918.88V481.027H906.628ZM941.569 450.379L958.313 481.027H944.64L928.194 450.379H941.569Z" fill="#344146"/>
</svg>
