<svg width="665" height="372" viewBox="150 -5 665 372" fill="none" xmlns="http://www.w3.org/2000/svg">
<path d="M230.141 222.466C192.326 168.666 163.379 149.693 153.633 146.932C203.924 110.286 279.051 113.397 305.919 118.668C356.655 128.621 361.96 137.186 433.352 182.993C453.171 195.71 464.54 210.039 560.054 242.933C336.133 182.993 268.883 207.359 230.141 222.466Z" fill="#53683D"/>
<path d="M604.644 236.598C543.047 234.454 498.246 210.202 483.546 198.344C580.765 170.079 581.009 144.008 677.985 128.901C737.751 119.591 787.306 141.003 807.367 157.166C777.543 158.53 747.427 182.993 730.371 194.689C711.095 207.907 666.24 238.742 604.644 236.598Z" fill="#9CB080"/>
<path d="M395.833 82.8699V142.799L384.052 135.072L383.847 87.3807H365.03L422.124 43.6904L479.218 0L545.205 47.8145V30.158H562.99V64.9556L599.077 91.5049H577.167V146.537L565.826 151.434V142.799V82.8699L479.218 20.8786L395.833 82.8699Z" fill="#53683D"/>
<path d="M458.597 101.3V82.8699H476.77V101.3H458.597Z" fill="#FFFFFF"/>
<path d="M458.597 127.72V109.29H476.254V127.72H458.597Z" fill="#FFFFFF"/>
<path d="M483.546 127.72V109.29H502.546V127.72H483.546Z" fill="#FFFFFF"/>
<path d="M484.502 101.3V82.8699H502.546V101.3H484.502Z" fill="#FFFFFF"/>
<path d="M400.897 223.853C336.311 210.502 266.343 225.243 239.432 234.283C252.115 258.649 304.379 294.781 328.926 309.801C294.38 288.606 267.246 254.936 257.998 240.75C323.293 220.724 378.71 229.964 387.832 231.652C447.144 242.631 518.971 269.747 609.3 266.201C681.563 263.364 759.291 199.376 789.123 167.736C750.449 204.598 663.025 254.954 605.949 256.123C534.603 257.583 481.63 240.542 400.897 223.853Z" fill="#C5AD8D"/>
<path d="M410.284 278.718C425.304 255.019 495.954 259.664 529.402 264.949C476.665 259.442 453.189 272.251 448.043 278.718C442.411 282.89 441.409 294.03 482.464 305.211C545.502 322.38 579.468 359.659 491.643 360.702C421.383 361.536 355.976 327.95 332.055 311.052C332.055 311.052 363.731 329.11 391.264 335.033C444.636 346.514 517.981 349.728 493.312 333.165C467.615 315.913 391.509 308.34 410.284 278.718Z" fill="#53676E"/>
<path d="M476.656 280.169C477.991 273.396 504.577 272.729 517.704 273.242C484.045 277.039 489.833 280.169 498.206 281.452L550.67 287.609C585.798 292.435 617.624 301.348 632.508 315.701C647.392 330.054 628.892 351.384 615.511 360.008C615.037 360.349 614.586 360.632 614.165 360.853C614.605 360.584 615.054 360.302 615.511 360.008C624.133 353.806 637.515 329.245 621.99 318.779C591.964 298.54 474.989 288.635 476.656 280.169Z" fill="#53676E"/>
</svg>
